<mxfile host="app.diagrams.net" agent="Mozilla/5.0 (Windows NT 10.0; Win64; x64) AppleWebKit/537.36 (KHTML, like Gecko) Chrome/128.0.0.0 Safari/537.36" version="24.7.14">
  <diagram name="Page-1" id="nxw5mkG4yEcVR99a_t9H">
    <mxGraphModel dx="439" dy="425" grid="1" gridSize="10" guides="1" tooltips="1" connect="1" arrows="1" fold="1" page="1" pageScale="1" pageWidth="850" pageHeight="1100" math="0" shadow="0">
      <root>
        <mxCell id="0" />
        <mxCell id="1" parent="0" />
        <mxCell id="98oaiqApsQXnu5MyMBdG-14" style="edgeStyle=orthogonalEdgeStyle;rounded=0;orthogonalLoop=1;jettySize=auto;html=1;entryX=0;entryY=0.5;entryDx=0;entryDy=0;" edge="1" parent="1" source="98oaiqApsQXnu5MyMBdG-1" target="98oaiqApsQXnu5MyMBdG-8">
          <mxGeometry relative="1" as="geometry" />
        </mxCell>
        <mxCell id="98oaiqApsQXnu5MyMBdG-15" style="edgeStyle=orthogonalEdgeStyle;rounded=0;orthogonalLoop=1;jettySize=auto;html=1;entryX=0;entryY=0.5;entryDx=0;entryDy=0;" edge="1" parent="1" source="98oaiqApsQXnu5MyMBdG-1" target="98oaiqApsQXnu5MyMBdG-10">
          <mxGeometry relative="1" as="geometry" />
        </mxCell>
        <mxCell id="98oaiqApsQXnu5MyMBdG-16" style="edgeStyle=orthogonalEdgeStyle;rounded=0;orthogonalLoop=1;jettySize=auto;html=1;entryX=0;entryY=0.5;entryDx=0;entryDy=0;" edge="1" parent="1" source="98oaiqApsQXnu5MyMBdG-1" target="98oaiqApsQXnu5MyMBdG-9">
          <mxGeometry relative="1" as="geometry" />
        </mxCell>
        <mxCell id="98oaiqApsQXnu5MyMBdG-17" style="edgeStyle=orthogonalEdgeStyle;rounded=0;orthogonalLoop=1;jettySize=auto;html=1;entryX=0;entryY=0.5;entryDx=0;entryDy=0;" edge="1" parent="1" source="98oaiqApsQXnu5MyMBdG-1" target="98oaiqApsQXnu5MyMBdG-7">
          <mxGeometry relative="1" as="geometry" />
        </mxCell>
        <mxCell id="98oaiqApsQXnu5MyMBdG-1" value="User" style="shape=umlActor;verticalLabelPosition=bottom;verticalAlign=top;html=1;outlineConnect=0;" vertex="1" parent="1">
          <mxGeometry x="90" y="400" width="30" height="60" as="geometry" />
        </mxCell>
        <mxCell id="98oaiqApsQXnu5MyMBdG-7" value="Membership" style="rounded=1;whiteSpace=wrap;html=1;" vertex="1" parent="1">
          <mxGeometry x="230" y="540" width="120" height="60" as="geometry" />
        </mxCell>
        <mxCell id="98oaiqApsQXnu5MyMBdG-8" value="Update Profile" style="rounded=1;whiteSpace=wrap;html=1;" vertex="1" parent="1">
          <mxGeometry x="230" y="360" width="120" height="60" as="geometry" />
        </mxCell>
        <mxCell id="98oaiqApsQXnu5MyMBdG-9" value="Chane, Forgot password" style="rounded=1;whiteSpace=wrap;html=1;" vertex="1" parent="1">
          <mxGeometry x="230" y="450" width="120" height="60" as="geometry" />
        </mxCell>
        <mxCell id="98oaiqApsQXnu5MyMBdG-10" value="Sign up, Login, Logout" style="rounded=1;whiteSpace=wrap;html=1;" vertex="1" parent="1">
          <mxGeometry x="230" y="270" width="120" height="60" as="geometry" />
        </mxCell>
        <mxCell id="98oaiqApsQXnu5MyMBdG-21" style="edgeStyle=orthogonalEdgeStyle;rounded=0;orthogonalLoop=1;jettySize=auto;html=1;entryX=1;entryY=0.5;entryDx=0;entryDy=0;" edge="1" parent="1" source="98oaiqApsQXnu5MyMBdG-18" target="98oaiqApsQXnu5MyMBdG-19">
          <mxGeometry relative="1" as="geometry" />
        </mxCell>
        <mxCell id="98oaiqApsQXnu5MyMBdG-22" style="edgeStyle=orthogonalEdgeStyle;rounded=0;orthogonalLoop=1;jettySize=auto;html=1;entryX=1;entryY=0.5;entryDx=0;entryDy=0;" edge="1" parent="1" source="98oaiqApsQXnu5MyMBdG-18" target="98oaiqApsQXnu5MyMBdG-20">
          <mxGeometry relative="1" as="geometry" />
        </mxCell>
        <mxCell id="98oaiqApsQXnu5MyMBdG-18" value="App System" style="shape=umlActor;verticalLabelPosition=bottom;verticalAlign=top;html=1;outlineConnect=0;" vertex="1" parent="1">
          <mxGeometry x="620" y="400" width="30" height="60" as="geometry" />
        </mxCell>
        <mxCell id="98oaiqApsQXnu5MyMBdG-19" value="Manage User" style="rounded=1;whiteSpace=wrap;html=1;" vertex="1" parent="1">
          <mxGeometry x="400" y="340" width="120" height="60" as="geometry" />
        </mxCell>
        <mxCell id="98oaiqApsQXnu5MyMBdG-20" value="Manage Membership" style="rounded=1;whiteSpace=wrap;html=1;" vertex="1" parent="1">
          <mxGeometry x="400" y="460" width="120" height="60" as="geometry" />
        </mxCell>
      </root>
    </mxGraphModel>
  </diagram>
</mxfile>
